<?xml version="1.0" standalone="no"?>
<!DOCTYPE svg PUBLIC "-//W3C//DTD SVG 20010904//EN"
 "http://www.w3.org/TR/2001/REC-SVG-20010904/DTD/svg10.dtd">
<svg version="1.0" xmlns="http://www.w3.org/2000/svg"
 width="700.000000pt" height="700.000000pt" viewBox="0 0 700.000000 700.000000"
 preserveAspectRatio="xMidYMid meet">

<g transform="translate(0.000000,700.000000) scale(0.100000,-0.100000)"
fill="#f0f0f0" stroke="none">
<path d="M1400 6989 c-236 -30 -424 -104 -650 -254 -121 -80 -203 -152 -308
-268 -210 -231 -336 -478 -409 -799 l-28 -123 -3 -1970 c-2 -1423 0 -1996 8
-2065 25 -210 85 -412 176 -594 70 -139 122 -219 216 -331 242 -290 536 -471
898 -553 l115 -26 1995 -4 c2009 -3 2107 -1 2274 33 244 51 531 196 729 370
88 77 233 240 297 336 108 158 210 400 263 621 l21 93 3 2038 3 2038 -25 127
c-65 317 -195 576 -407 809 -246 269 -541 441 -876 511 -69 14 -294 16 -2152
18 -1141 1 -2104 -2 -2140 -7z m4241 -364 c452 -79 849 -456 975 -926 50 -188
47 -72 51 -2089 5 -2037 4 -2063 -47 -2267 -98 -387 -352 -693 -723 -868 -118
-56 -252 -91 -400 -105 -76 -8 -745 -10 -2087 -8 l-1975 4 -105 26 c-133 33
-257 85 -365 153 -276 174 -457 406 -559 715 -76 233 -71 84 -71 2255 0 1852
1 1945 19 2045 86 482 403 871 831 1019 178 62 53 59 2306 60 1775 1 2078 -1
2150 -14z"/>
<path d="M1890 5685 l0 -275 395 0 395 0 -2 -1557 -3 -1558 -28 -82 c-53 -156
-176 -303 -315 -376 -94 -49 -178 -69 -297 -69 -281 0 -497 126 -614 359 -64
127 -64 132 -70 563 l-6 395 -248 3 -249 2 5 -392 c4 -432 11 -489 77 -667
107 -292 328 -546 585 -674 168 -84 311 -111 545 -104 141 4 178 8 255 31 185
55 326 138 474 281 196 188 299 375 362 660 21 96 22 126 26 703 l5 603 976
-3 977 -3 81 -27 c184 -63 350 -217 435 -403 16 -36 42 -110 57 -163 24 -88
26 -114 27 -272 0 -237 -27 -357 -113 -499 -112 -185 -254 -297 -449 -353 -77
-23 -85 -23 -651 -23 l-572 0 0 753 0 752 -245 0 -245 0 0 -1025 0 -1025 778
0 c477 0 810 4 862 10 283 35 539 166 745 381 180 187 300 428 357 712 33 163
33 463 0 625 -70 348 -235 629 -465 789 -43 31 -75 59 -70 62 4 4 34 24 65 45
126 84 270 267 328 419 61 157 74 234 75 437 0 142 -4 204 -18 269 -42 193
-105 345 -209 498 -63 94 -200 235 -283 290 -97 65 -233 129 -330 154 l-90 24
-870 0 -870 0 0 -850 0 -850 240 0 240 0 0 573 0 572 70 0 c39 0 237 2 440 4
635 5 722 -4 862 -95 194 -127 303 -333 303 -576 0 -201 -54 -347 -175 -469
-79 -80 -132 -114 -238 -153 l-72 -26 -977 -3 -978 -3 -2 938 -3 938 -642 3
-643 2 0 -275z"/>
</g>
</svg>
